<svg xmlns="http://www.w3.org/2000/svg" width="1200" height="900" viewBox="0 0 1200 900" role="img" aria-label="MatrixOmnix hosted deployment flow">
  <rect width="1200" height="900" fill="#fff"/>
  <rect x="78" y="86" width="1044" height="728" fill="#f7f7f7" stroke="#111" stroke-width="4"/>
  <g font-family="Inter,Arial" fill="#111">
    <text x="600" y="165" text-anchor="middle" font-size="58" font-weight="900">Hosted Productization</text>
    <g font-size="34" font-weight="800">
      <rect x="130" y="300" width="210" height="140" fill="#fff" stroke="#111" stroke-width="4"/>
      <text x="235" y="360" text-anchor="middle">Upload</text>
      <text x="235" y="406" text-anchor="middle">Demo ZIP</text>
      <rect x="495" y="300" width="210" height="140" fill="#111"/>
      <text x="600" y="360" text-anchor="middle" fill="#fff">Supabase</text>
      <text x="600" y="406" text-anchor="middle" fill="#fff">Storage</text>
      <rect x="860" y="300" width="210" height="140" fill="#fff" stroke="#111" stroke-width="4"/>
      <text x="965" y="360" text-anchor="middle">Worker</text>
      <text x="965" y="406" text-anchor="middle">Harness</text>
      <rect x="314" y="596" width="572" height="140" fill="#fff" stroke="#111" stroke-width="4"/>
      <text x="600" y="656" text-anchor="middle">Return Product Artifact</text>
      <text x="600" y="702" text-anchor="middle">Unified ZIP</text>
    </g>
  </g>
  <g fill="none" stroke="#111" stroke-width="8" stroke-linecap="round" stroke-linejoin="round">
    <path d="M340 370h142"/>
    <path d="M705 370h142"/>
    <path d="M965 440C965 548 840 626 886 666"/>
    <path d="M314 666C180 626 150 520 210 440"/>
  </g>
</svg>
