<svg xmlns="http://www.w3.org/2000/svg" width="1200" height="900" viewBox="0 0 1200 900" role="img" aria-label="MatrixOmnix harness coverage map">
  <rect width="1200" height="900" fill="#fff"/>
  <rect x="72" y="74" width="1056" height="752" fill="#111"/>
  <text x="112" y="150" font-family="Inter,Arial" font-size="58" font-weight="900" fill="#fff">Harness Map</text>
  <g font-family="Inter,Arial" font-size="34" font-weight="800">
    <g fill="#fff">
      <rect x="112" y="224" width="284" height="116"/>
      <rect x="458" y="224" width="284" height="116"/>
      <rect x="804" y="224" width="284" height="116"/>
      <rect x="112" y="414" width="284" height="116"/>
      <rect x="458" y="414" width="284" height="116"/>
      <rect x="804" y="414" width="284" height="116"/>
      <rect x="112" y="604" width="976" height="116"/>
    </g>
    <g fill="#111">
      <text x="254" y="294" text-anchor="middle">UI</text>
      <text x="600" y="294" text-anchor="middle">CLI</text>
      <text x="946" y="294" text-anchor="middle">API</text>
      <text x="254" y="484" text-anchor="middle">Config</text>
      <text x="600" y="484" text-anchor="middle">Data</text>
      <text x="946" y="484" text-anchor="middle">Worker</text>
      <text x="600" y="674" text-anchor="middle">Single-file Intake + Runtime Contract</text>
    </g>
  </g>
  <g stroke="#fff" stroke-width="4" opacity="0.5">
    <path d="M396 282h62M742 282h62M254 340v74M600 340v74M946 340v74M396 472h62M742 472h62M600 530v74"/>
  </g>
</svg>
